<?xml version="1.0" encoding="UTF-8" standalone="no"?>
<!DOCTYPE svg PUBLIC "-//W3C//DTD SVG 1.1//EN"
 "http://www.w3.org/Graphics/SVG/1.1/DTD/svg11.dtd">
<!-- Generated by graphviz version 2.38.0 (20140413.2041)
 -->
<!-- Title: Auxilary.h Pages: 1 -->
<svg width="238pt" height="140pt"
 viewBox="0.00 0.00 237.50 140.00" xmlns="http://www.w3.org/2000/svg" xmlns:xlink="http://www.w3.org/1999/xlink">
<g id="graph0" class="graph" transform="scale(1 1) rotate(0) translate(4 136)">
<title>Auxilary.h</title>
<!-- Node1 -->
<g id="node1" class="node"><title>Node1</title>
<polygon fill="#bfbfbf" stroke="black" points="41,-112.5 41,-131.5 101,-131.5 101,-112.5 41,-112.5"/>
<text text-anchor="middle" x="71" y="-119.5" font-family="Helvetica,sans-Serif" font-size="10.00">Auxilary.h</text>
</g>
<!-- Node2 -->
<g id="node2" class="node"><title>Node2</title>
<g id="a_node2"><a xlink:href="Auxilary_8c.html" target="_top" xlink:title="Auxilary.c">
<polygon fill="none" stroke="black" points="-3.55271e-15,-56.5 -3.55271e-15,-75.5 60,-75.5 60,-56.5 -3.55271e-15,-56.5"/>
<text text-anchor="middle" x="30" y="-63.5" font-family="Helvetica,sans-Serif" font-size="10.00">Auxilary.c</text>
</a>
</g>
</g>
<!-- Node1&#45;&gt;Node2 -->
<g id="edge1" class="edge"><title>Node1&#45;&gt;Node2</title>
<path fill="none" stroke="midnightblue" d="M57.9828,-103.855C50.8833,-94.5048 42.396,-83.3265 36.6443,-75.7511"/>
<polygon fill="midnightblue" stroke="midnightblue" points="55.395,-106.235 64.2297,-112.083 60.9701,-102.002 55.395,-106.235"/>
</g>
<!-- Node3 -->
<g id="node3" class="node"><title>Node3</title>
<g id="a_node3"><a xlink:href="qpSWIFT_8h.html" target="_top" xlink:title="qpSWIFT.h">
<polygon fill="none" stroke="black" points="78.5,-56.5 78.5,-75.5 145.5,-75.5 145.5,-56.5 78.5,-56.5"/>
<text text-anchor="middle" x="112" y="-63.5" font-family="Helvetica,sans-Serif" font-size="10.00">qpSWIFT.h</text>
</a>
</g>
</g>
<!-- Node1&#45;&gt;Node3 -->
<g id="edge2" class="edge"><title>Node1&#45;&gt;Node3</title>
<path fill="none" stroke="midnightblue" d="M84.0172,-103.855C91.1167,-94.5048 99.604,-83.3265 105.356,-75.7511"/>
<polygon fill="midnightblue" stroke="midnightblue" points="81.0299,-102.002 77.7703,-112.083 86.605,-106.235 81.0299,-102.002"/>
</g>
<!-- Node4 -->
<g id="node4" class="node"><title>Node4</title>
<g id="a_node4"><a xlink:href="qpSWIFT_8c.html" target="_top" xlink:title="qpSWIFT.c">
<polygon fill="none" stroke="black" points="2.5,-0.5 2.5,-19.5 69.5,-19.5 69.5,-0.5 2.5,-0.5"/>
<text text-anchor="middle" x="36" y="-7.5" font-family="Helvetica,sans-Serif" font-size="10.00">qpSWIFT.c</text>
</a>
</g>
</g>
<!-- Node3&#45;&gt;Node4 -->
<g id="edge3" class="edge"><title>Node3&#45;&gt;Node4</title>
<path fill="none" stroke="midnightblue" d="M91.4242,-50.3804C77.688,-40.6204 60.0747,-28.1057 48.4329,-19.8339"/>
<polygon fill="midnightblue" stroke="midnightblue" points="89.6102,-53.385 99.7893,-56.324 93.6647,-47.6787 89.6102,-53.385"/>
</g>
<!-- Node5 -->
<g id="node5" class="node"><title>Node5</title>
<g id="a_node5"><a xlink:href="runqp_8c.html" target="_top" xlink:title="runqp.c">
<polygon fill="none" stroke="black" points="87.5,-0.5 87.5,-19.5 136.5,-19.5 136.5,-0.5 87.5,-0.5"/>
<text text-anchor="middle" x="112" y="-7.5" font-family="Helvetica,sans-Serif" font-size="10.00">runqp.c</text>
</a>
</g>
</g>
<!-- Node3&#45;&gt;Node5 -->
<g id="edge4" class="edge"><title>Node3&#45;&gt;Node5</title>
<path fill="none" stroke="midnightblue" d="M112,-45.8045C112,-36.9102 112,-26.7798 112,-19.7511"/>
<polygon fill="midnightblue" stroke="midnightblue" points="108.5,-46.083 112,-56.083 115.5,-46.083 108.5,-46.083"/>
</g>
<!-- Node6 -->
<g id="node6" class="node"><title>Node6</title>
<g id="a_node6"><a xlink:href="runqpcpp_8cpp.html" target="_top" xlink:title="runqpcpp.cpp">
<polygon fill="none" stroke="black" points="154.5,-0.5 154.5,-19.5 229.5,-19.5 229.5,-0.5 154.5,-0.5"/>
<text text-anchor="middle" x="192" y="-7.5" font-family="Helvetica,sans-Serif" font-size="10.00">runqpcpp.cpp</text>
</a>
</g>
</g>
<!-- Node3&#45;&gt;Node6 -->
<g id="edge5" class="edge"><title>Node3&#45;&gt;Node6</title>
<path fill="none" stroke="midnightblue" d="M133.301,-50.6221C147.915,-40.7574 166.827,-27.9919 179.179,-19.6545"/>
<polygon fill="midnightblue" stroke="midnightblue" points="131.184,-47.8282 124.853,-56.324 135.1,-53.6302 131.184,-47.8282"/>
</g>
</g>
</svg>
