<?xml version="1.0" encoding="UTF-8" standalone="no"?>
<!DOCTYPE svg PUBLIC "-//W3C//DTD SVG 1.1//EN"
 "http://www.w3.org/Graphics/SVG/1.1/DTD/svg11.dtd">
<!-- Generated by graphviz version 2.38.0 (20140413.2041)
 -->
<!-- Title: Auxilary.h Pages: 1 -->
<svg width="656pt" height="252pt"
 viewBox="0.00 0.00 656.00 252.00" xmlns="http://www.w3.org/2000/svg" xmlns:xlink="http://www.w3.org/1999/xlink">
<g id="graph0" class="graph" transform="scale(1 1) rotate(0) translate(4 248)">
<title>Auxilary.h</title>
<!-- Node1 -->
<g id="node1" class="node"><title>Node1</title>
<polygon fill="#bfbfbf" stroke="black" points="253,-224.5 253,-243.5 313,-243.5 313,-224.5 253,-224.5"/>
<text text-anchor="middle" x="283" y="-231.5" font-family="Helvetica,sans-Serif" font-size="10.00">Auxilary.h</text>
</g>
<!-- Node2 -->
<g id="node2" class="node"><title>Node2</title>
<g id="a_node2"><a xlink:href="timer_8h.html" target="_top" xlink:title="timer.h">
<polygon fill="none" stroke="black" points="132.5,-168.5 132.5,-187.5 179.5,-187.5 179.5,-168.5 132.5,-168.5"/>
<text text-anchor="middle" x="156" y="-175.5" font-family="Helvetica,sans-Serif" font-size="10.00">timer.h</text>
</a>
</g>
</g>
<!-- Node1&#45;&gt;Node2 -->
<g id="edge1" class="edge"><title>Node1&#45;&gt;Node2</title>
<path fill="none" stroke="midnightblue" d="M262.876,-224.444C241.976,-215.557 209.065,-201.563 185.284,-191.451"/>
<polygon fill="midnightblue" stroke="midnightblue" points="186.602,-188.208 176.029,-187.516 183.862,-194.65 186.602,-188.208"/>
</g>
<!-- Node9 -->
<g id="node9" class="node"><title>Node9</title>
<g id="a_node9"><a xlink:href="amd_8h_source.html" target="_top" xlink:title="amd.h">
<polygon fill="none" stroke="black" points="485,-112.5 485,-131.5 529,-131.5 529,-112.5 485,-112.5"/>
<text text-anchor="middle" x="507" y="-119.5" font-family="Helvetica,sans-Serif" font-size="10.00">amd.h</text>
</a>
</g>
</g>
<!-- Node1&#45;&gt;Node9 -->
<g id="edge8" class="edge"><title>Node1&#45;&gt;Node9</title>
<path fill="none" stroke="midnightblue" d="M302.276,-224.463C322.128,-215.597 353.903,-201.202 381,-188 416.318,-170.793 456.575,-149.775 481.883,-136.387"/>
<polygon fill="midnightblue" stroke="midnightblue" points="483.615,-139.431 490.81,-131.654 480.335,-133.247 483.615,-139.431"/>
</g>
<!-- Node13 -->
<g id="node13" class="node"><title>Node13</title>
<g id="a_node13"><a xlink:href="amd__internal_8h_source.html" target="_top" xlink:title="amd_internal.h">
<polygon fill="none" stroke="black" points="292,-168.5 292,-187.5 372,-187.5 372,-168.5 292,-168.5"/>
<text text-anchor="middle" x="332" y="-175.5" font-family="Helvetica,sans-Serif" font-size="10.00">amd_internal.h</text>
</a>
</g>
</g>
<!-- Node1&#45;&gt;Node13 -->
<g id="edge13" class="edge"><title>Node1&#45;&gt;Node13</title>
<path fill="none" stroke="midnightblue" d="M291.091,-224.083C298.155,-216.298 308.588,-204.801 317.149,-195.367"/>
<polygon fill="midnightblue" stroke="midnightblue" points="319.931,-197.509 324.059,-187.751 314.747,-192.805 319.931,-197.509"/>
</g>
<!-- Node15 -->
<g id="node15" class="node"><title>Node15</title>
<g id="a_node15"><a xlink:href="ldl_8h_source.html" target="_top" xlink:title="ldl.h">
<polygon fill="none" stroke="black" points="217.5,-168.5 217.5,-187.5 252.5,-187.5 252.5,-168.5 217.5,-168.5"/>
<text text-anchor="middle" x="235" y="-175.5" font-family="Helvetica,sans-Serif" font-size="10.00">ldl.h</text>
</a>
</g>
</g>
<!-- Node1&#45;&gt;Node15 -->
<g id="edge20" class="edge"><title>Node1&#45;&gt;Node15</title>
<path fill="none" stroke="midnightblue" d="M275.074,-224.083C268.154,-216.298 257.935,-204.801 249.548,-195.367"/>
<polygon fill="midnightblue" stroke="midnightblue" points="252.038,-192.9 242.779,-187.751 246.806,-197.55 252.038,-192.9"/>
</g>
<!-- Node3 -->
<g id="node3" class="node"><title>Node3</title>
<g id="a_node3"><a xlink:href="GlobalOptions_8h.html" target="_top" xlink:title="GlobalOptions.h">
<polygon fill="none" stroke="black" points="142,-112.5 142,-131.5 228,-131.5 228,-112.5 142,-112.5"/>
<text text-anchor="middle" x="185" y="-119.5" font-family="Helvetica,sans-Serif" font-size="10.00">GlobalOptions.h</text>
</a>
</g>
</g>
<!-- Node2&#45;&gt;Node3 -->
<g id="edge2" class="edge"><title>Node2&#45;&gt;Node3</title>
<path fill="none" stroke="midnightblue" d="M160.789,-168.083C164.758,-160.691 170.525,-149.953 175.435,-140.811"/>
<polygon fill="midnightblue" stroke="midnightblue" points="178.653,-142.217 180.3,-131.751 172.486,-138.905 178.653,-142.217"/>
</g>
<!-- Node7 -->
<g id="node7" class="node"><title>Node7</title>
<polygon fill="none" stroke="#bfbfbf" points="80,-112.5 80,-131.5 124,-131.5 124,-112.5 80,-112.5"/>
<text text-anchor="middle" x="102" y="-119.5" font-family="Helvetica,sans-Serif" font-size="10.00">time.h</text>
</g>
<!-- Node2&#45;&gt;Node7 -->
<g id="edge6" class="edge"><title>Node2&#45;&gt;Node7</title>
<path fill="none" stroke="midnightblue" d="M147.083,-168.083C139.22,-160.22 127.569,-148.569 118.081,-139.081"/>
<polygon fill="midnightblue" stroke="midnightblue" points="120.297,-136.347 110.751,-131.751 115.347,-141.297 120.297,-136.347"/>
</g>
<!-- Node8 -->
<g id="node8" class="node"><title>Node8</title>
<polygon fill="none" stroke="#bfbfbf" points="0,-112.5 0,-131.5 62,-131.5 62,-112.5 0,-112.5"/>
<text text-anchor="middle" x="31" y="-119.5" font-family="Helvetica,sans-Serif" font-size="10.00">sys/time.h</text>
</g>
<!-- Node2&#45;&gt;Node8 -->
<g id="edge7" class="edge"><title>Node2&#45;&gt;Node8</title>
<path fill="none" stroke="midnightblue" d="M136.193,-168.444C115.713,-159.596 83.5173,-145.687 60.1353,-135.586"/>
<polygon fill="midnightblue" stroke="midnightblue" points="61.282,-132.269 50.714,-131.516 58.5059,-138.695 61.282,-132.269"/>
</g>
<!-- Node4 -->
<g id="node4" class="node"><title>Node4</title>
<polygon fill="none" stroke="#bfbfbf" points="192.5,-56.5 192.5,-75.5 239.5,-75.5 239.5,-56.5 192.5,-56.5"/>
<text text-anchor="middle" x="216" y="-63.5" font-family="Helvetica,sans-Serif" font-size="10.00">math.h</text>
</g>
<!-- Node3&#45;&gt;Node4 -->
<g id="edge3" class="edge"><title>Node3&#45;&gt;Node4</title>
<path fill="none" stroke="midnightblue" d="M190.119,-112.083C194.408,-104.613 200.658,-93.7244 205.942,-84.5199"/>
<polygon fill="midnightblue" stroke="midnightblue" points="209.033,-86.1662 210.976,-75.7511 202.962,-82.6811 209.033,-86.1662"/>
</g>
<!-- Node5 -->
<g id="node5" class="node"><title>Node5</title>
<polygon fill="none" stroke="#bfbfbf" points="258,-56.5 258,-75.5 304,-75.5 304,-56.5 258,-56.5"/>
<text text-anchor="middle" x="281" y="-63.5" font-family="Helvetica,sans-Serif" font-size="10.00">stdio.h</text>
</g>
<!-- Node3&#45;&gt;Node5 -->
<g id="edge4" class="edge"><title>Node3&#45;&gt;Node5</title>
<path fill="none" stroke="midnightblue" d="M200.424,-112.324C215.54,-103.822 238.815,-90.7288 256.471,-80.7975"/>
<polygon fill="midnightblue" stroke="midnightblue" points="258.614,-83.6077 265.614,-75.6545 255.183,-77.5066 258.614,-83.6077"/>
</g>
<!-- Node6 -->
<g id="node6" class="node"><title>Node6</title>
<polygon fill="none" stroke="#bfbfbf" points="308,-0.5 308,-19.5 356,-19.5 356,-0.5 308,-0.5"/>
<text text-anchor="middle" x="332" y="-7.5" font-family="Helvetica,sans-Serif" font-size="10.00">stdlib.h</text>
</g>
<!-- Node3&#45;&gt;Node6 -->
<g id="edge5" class="edge"><title>Node3&#45;&gt;Node6</title>
<path fill="none" stroke="midnightblue" d="M181.675,-112.425C177.067,-98.9605 170.615,-72.678 183,-56 209.207,-20.7092 262.271,-12.0984 297.479,-10.5105"/>
<polygon fill="midnightblue" stroke="midnightblue" points="297.885,-14.0006 307.783,-10.2214 297.688,-7.00333 297.885,-14.0006"/>
</g>
<!-- Node10 -->
<g id="node10" class="node"><title>Node10</title>
<polygon fill="none" stroke="#bfbfbf" points="596,-56.5 596,-75.5 648,-75.5 648,-56.5 596,-56.5"/>
<text text-anchor="middle" x="622" y="-63.5" font-family="Helvetica,sans-Serif" font-size="10.00">stddef.h</text>
</g>
<!-- Node9&#45;&gt;Node10 -->
<g id="edge9" class="edge"><title>Node9&#45;&gt;Node10</title>
<path fill="none" stroke="midnightblue" d="M525.222,-112.444C543.896,-103.675 573.156,-89.9355 594.617,-79.8579"/>
<polygon fill="midnightblue" stroke="midnightblue" points="596.299,-82.935 603.863,-75.5164 593.324,-76.5988 596.299,-82.935"/>
</g>
<!-- Node11 -->
<g id="node11" class="node"><title>Node11</title>
<g id="a_node11"><a xlink:href="SuiteSparse__config_8h_source.html" target="_top" xlink:title="SuiteSparse_config.h">
<polygon fill="none" stroke="black" points="468,-56.5 468,-75.5 578,-75.5 578,-56.5 468,-56.5"/>
<text text-anchor="middle" x="523" y="-63.5" font-family="Helvetica,sans-Serif" font-size="10.00">SuiteSparse_config.h</text>
</a>
</g>
</g>
<!-- Node9&#45;&gt;Node11 -->
<g id="edge10" class="edge"><title>Node9&#45;&gt;Node11</title>
<path fill="none" stroke="midnightblue" d="M509.642,-112.083C511.786,-104.849 514.879,-94.4087 517.549,-85.3968"/>
<polygon fill="midnightblue" stroke="midnightblue" points="520.922,-86.3334 520.407,-75.7511 514.21,-84.3447 520.922,-86.3334"/>
</g>
<!-- Node11&#45;&gt;Node6 -->
<g id="edge12" class="edge"><title>Node11&#45;&gt;Node6</title>
<path fill="none" stroke="midnightblue" d="M492.735,-56.4435C458.27,-46.6993 402.089,-30.8158 366.102,-20.6414"/>
<polygon fill="midnightblue" stroke="midnightblue" points="366.65,-17.1593 356.075,-17.8067 364.746,-23.8953 366.65,-17.1593"/>
</g>
<!-- Node12 -->
<g id="node12" class="node"><title>Node12</title>
<polygon fill="none" stroke="#bfbfbf" points="457,-0.5 457,-19.5 505,-19.5 505,-0.5 457,-0.5"/>
<text text-anchor="middle" x="481" y="-7.5" font-family="Helvetica,sans-Serif" font-size="10.00">limits.h</text>
</g>
<!-- Node11&#45;&gt;Node12 -->
<g id="edge11" class="edge"><title>Node11&#45;&gt;Node12</title>
<path fill="none" stroke="midnightblue" d="M516.065,-56.083C510.071,-48.3768 501.248,-37.0333 493.952,-27.6531"/>
<polygon fill="midnightblue" stroke="midnightblue" points="496.709,-25.4958 487.806,-19.7511 491.183,-29.7934 496.709,-25.4958"/>
</g>
<!-- Node13&#45;&gt;Node4 -->
<g id="edge17" class="edge"><title>Node13&#45;&gt;Node4</title>
<path fill="none" stroke="midnightblue" d="M322.898,-168.368C303.416,-149.894 257.436,-106.293 232.602,-82.7436"/>
<polygon fill="midnightblue" stroke="midnightblue" points="234.725,-79.9327 225.06,-75.5914 229.908,-85.0121 234.725,-79.9327"/>
</g>
<!-- Node13&#45;&gt;Node5 -->
<g id="edge15" class="edge"><title>Node13&#45;&gt;Node5</title>
<path fill="none" stroke="midnightblue" d="M327.998,-168.368C319.693,-150.456 300.437,-108.923 289.321,-84.9482"/>
<polygon fill="midnightblue" stroke="midnightblue" points="292.365,-83.1916 284.983,-75.5914 286.014,-86.136 292.365,-83.1916"/>
</g>
<!-- Node13&#45;&gt;Node6 -->
<g id="edge14" class="edge"><title>Node13&#45;&gt;Node6</title>
<path fill="none" stroke="midnightblue" d="M332,-168.075C332,-141.945 332,-65.2106 332,-29.577"/>
<polygon fill="midnightblue" stroke="midnightblue" points="335.5,-29.5681 332,-19.5681 328.5,-29.5681 335.5,-29.5681"/>
</g>
<!-- Node13&#45;&gt;Node9 -->
<g id="edge18" class="edge"><title>Node13&#45;&gt;Node9</title>
<path fill="none" stroke="midnightblue" d="M359.729,-168.444C391.172,-158.741 442.341,-142.952 475.329,-132.773"/>
<polygon fill="midnightblue" stroke="midnightblue" points="476.418,-136.1 484.941,-129.807 474.354,-129.411 476.418,-136.1"/>
</g>
<!-- Node13&#45;&gt;Node12 -->
<g id="edge16" class="edge"><title>Node13&#45;&gt;Node12</title>
<path fill="none" stroke="midnightblue" d="M359.334,-168.407C378.552,-161.221 403.805,-149.33 421,-132 422.001,-130.991 455.92,-62.0678 472.307,-28.7086"/>
<polygon fill="midnightblue" stroke="midnightblue" points="475.508,-30.131 476.774,-19.6121 469.225,-27.0455 475.508,-30.131"/>
</g>
<!-- Node14 -->
<g id="node14" class="node"><title>Node14</title>
<polygon fill="none" stroke="#bfbfbf" points="360,-112.5 360,-131.5 412,-131.5 412,-112.5 360,-112.5"/>
<text text-anchor="middle" x="386" y="-119.5" font-family="Helvetica,sans-Serif" font-size="10.00">assert.h</text>
</g>
<!-- Node13&#45;&gt;Node14 -->
<g id="edge19" class="edge"><title>Node13&#45;&gt;Node14</title>
<path fill="none" stroke="midnightblue" d="M340.917,-168.083C348.78,-160.22 360.431,-148.569 369.919,-139.081"/>
<polygon fill="midnightblue" stroke="midnightblue" points="372.653,-141.297 377.249,-131.751 367.703,-136.347 372.653,-141.297"/>
</g>
<!-- Node15&#45;&gt;Node3 -->
<g id="edge21" class="edge"><title>Node15&#45;&gt;Node3</title>
<path fill="none" stroke="midnightblue" d="M226.744,-168.083C219.535,-160.298 208.89,-148.801 200.154,-139.367"/>
<polygon fill="midnightblue" stroke="midnightblue" points="202.465,-136.711 193.103,-131.751 197.329,-141.467 202.465,-136.711"/>
</g>
</g>
</svg>
