<?xml version="1.0" encoding="UTF-8" standalone="no"?>
<!DOCTYPE svg PUBLIC "-//W3C//DTD SVG 1.1//EN"
 "http://www.w3.org/Graphics/SVG/1.1/DTD/svg11.dtd">
<!-- Generated by graphviz version 2.38.0 (20140413.2041)
 -->
<!-- Title: GlobalOptions.h Pages: 1 -->
<svg width="332pt" height="252pt"
 viewBox="0.00 0.00 331.50 252.00" xmlns="http://www.w3.org/2000/svg" xmlns:xlink="http://www.w3.org/1999/xlink">
<g id="graph0" class="graph" transform="scale(1 1) rotate(0) translate(4 248)">
<title>GlobalOptions.h</title>
<!-- Node1 -->
<g id="node1" class="node"><title>Node1</title>
<polygon fill="#bfbfbf" stroke="black" points="166.5,-224.5 166.5,-243.5 252.5,-243.5 252.5,-224.5 166.5,-224.5"/>
<text text-anchor="middle" x="209.5" y="-231.5" font-family="Helvetica,sans-Serif" font-size="10.00">GlobalOptions.h</text>
</g>
<!-- Node2 -->
<g id="node2" class="node"><title>Node2</title>
<g id="a_node2"><a xlink:href="timer_8h.html" target="_top" xlink:title="timer.h">
<polygon fill="none" stroke="black" points="109,-168.5 109,-187.5 156,-187.5 156,-168.5 109,-168.5"/>
<text text-anchor="middle" x="132.5" y="-175.5" font-family="Helvetica,sans-Serif" font-size="10.00">timer.h</text>
</a>
</g>
</g>
<!-- Node1&#45;&gt;Node2 -->
<g id="edge1" class="edge"><title>Node1&#45;&gt;Node2</title>
<path fill="none" stroke="midnightblue" d="M188.599,-218.342C174.589,-208.517 156.617,-195.913 144.841,-187.655"/>
<polygon fill="midnightblue" stroke="midnightblue" points="186.932,-221.448 197.129,-224.324 190.951,-215.717 186.932,-221.448"/>
</g>
<!-- Node11 -->
<g id="node11" class="node"><title>Node11</title>
<g id="a_node11"><a xlink:href="ldl_8h_source.html" target="_top" xlink:title="ldl.h">
<polygon fill="none" stroke="black" points="192,-168.5 192,-187.5 227,-187.5 227,-168.5 192,-168.5"/>
<text text-anchor="middle" x="209.5" y="-175.5" font-family="Helvetica,sans-Serif" font-size="10.00">ldl.h</text>
</a>
</g>
</g>
<!-- Node1&#45;&gt;Node11 -->
<g id="edge10" class="edge"><title>Node1&#45;&gt;Node11</title>
<path fill="none" stroke="midnightblue" d="M209.5,-213.805C209.5,-204.91 209.5,-194.78 209.5,-187.751"/>
<polygon fill="midnightblue" stroke="midnightblue" points="206,-214.083 209.5,-224.083 213,-214.083 206,-214.083"/>
</g>
<!-- Node12 -->
<g id="node12" class="node"><title>Node12</title>
<g id="a_node12"><a xlink:href="Matrices_8h_source.html" target="_top" xlink:title="Matrices.h">
<polygon fill="none" stroke="black" points="261.5,-56.5 261.5,-75.5 323.5,-75.5 323.5,-56.5 261.5,-56.5"/>
<text text-anchor="middle" x="292.5" y="-63.5" font-family="Helvetica,sans-Serif" font-size="10.00">Matrices.h</text>
</a>
</g>
</g>
<!-- Node1&#45;&gt;Node12 -->
<g id="edge12" class="edge"><title>Node1&#45;&gt;Node12</title>
<path fill="none" stroke="midnightblue" d="M219.914,-215.759C224.811,-207.459 230.629,-197.309 235.5,-188 257.139,-146.645 279.937,-95.6373 288.734,-75.6289"/>
<polygon fill="midnightblue" stroke="midnightblue" points="216.821,-214.112 214.701,-224.492 222.832,-217.7 216.821,-214.112"/>
</g>
<!-- Node3 -->
<g id="node3" class="node"><title>Node3</title>
<g id="a_node3"><a xlink:href="timer_8c.html" target="_top" xlink:title="timer.c">
<polygon fill="none" stroke="black" points="0,-112.5 0,-131.5 47,-131.5 47,-112.5 0,-112.5"/>
<text text-anchor="middle" x="23.5" y="-119.5" font-family="Helvetica,sans-Serif" font-size="10.00">timer.c</text>
</a>
</g>
</g>
<!-- Node2&#45;&gt;Node3 -->
<g id="edge2" class="edge"><title>Node2&#45;&gt;Node3</title>
<path fill="none" stroke="midnightblue" d="M105.981,-163.862C85.7697,-153.849 58.5129,-140.346 40.9693,-131.655"/>
<polygon fill="midnightblue" stroke="midnightblue" points="104.473,-167.021 114.987,-168.324 107.58,-160.748 104.473,-167.021"/>
</g>
<!-- Node4 -->
<g id="node4" class="node"><title>Node4</title>
<g id="a_node4"><a xlink:href="Auxilary_8h.html" target="_top" xlink:title="Auxilary.h">
<polygon fill="none" stroke="black" points="179.5,-112.5 179.5,-131.5 239.5,-131.5 239.5,-112.5 179.5,-112.5"/>
<text text-anchor="middle" x="209.5" y="-119.5" font-family="Helvetica,sans-Serif" font-size="10.00">Auxilary.h</text>
</a>
</g>
</g>
<!-- Node2&#45;&gt;Node4 -->
<g id="edge3" class="edge"><title>Node2&#45;&gt;Node4</title>
<path fill="none" stroke="midnightblue" d="M153.401,-162.342C167.411,-152.517 185.383,-139.913 197.159,-131.655"/>
<polygon fill="midnightblue" stroke="midnightblue" points="151.049,-159.717 144.871,-168.324 155.068,-165.448 151.049,-159.717"/>
</g>
<!-- Node10 -->
<g id="node10" class="node"><title>Node10</title>
<g id="a_node10"><a xlink:href="CodeGen__Prime_8h_source.html" target="_top" xlink:title="CodeGen_Prime.h">
<polygon fill="none" stroke="black" points="65,-112.5 65,-131.5 162,-131.5 162,-112.5 65,-112.5"/>
<text text-anchor="middle" x="113.5" y="-119.5" font-family="Helvetica,sans-Serif" font-size="10.00">CodeGen_Prime.h</text>
</a>
</g>
</g>
<!-- Node2&#45;&gt;Node10 -->
<g id="edge9" class="edge"><title>Node2&#45;&gt;Node10</title>
<path fill="none" stroke="midnightblue" d="M125.954,-158.396C122.776,-149.362 119.107,-138.936 116.579,-131.751"/>
<polygon fill="midnightblue" stroke="midnightblue" points="122.742,-159.812 129.363,-168.083 129.345,-157.488 122.742,-159.812"/>
</g>
<!-- Node5 -->
<g id="node5" class="node"><title>Node5</title>
<g id="a_node5"><a xlink:href="Auxilary_8c.html" target="_top" xlink:title="Auxilary.c">
<polygon fill="none" stroke="black" points="97.5,-56.5 97.5,-75.5 157.5,-75.5 157.5,-56.5 97.5,-56.5"/>
<text text-anchor="middle" x="127.5" y="-63.5" font-family="Helvetica,sans-Serif" font-size="10.00">Auxilary.c</text>
</a>
</g>
</g>
<!-- Node4&#45;&gt;Node5 -->
<g id="edge4" class="edge"><title>Node4&#45;&gt;Node5</title>
<path fill="none" stroke="midnightblue" d="M187.667,-106.622C172.687,-96.7574 153.303,-83.9919 140.642,-75.6545"/>
<polygon fill="midnightblue" stroke="midnightblue" points="186.049,-109.747 196.325,-112.324 189.899,-103.901 186.049,-109.747"/>
</g>
<!-- Node6 -->
<g id="node6" class="node"><title>Node6</title>
<g id="a_node6"><a xlink:href="qpSWIFT_8h.html" target="_top" xlink:title="qpSWIFT.h">
<polygon fill="none" stroke="black" points="176,-56.5 176,-75.5 243,-75.5 243,-56.5 176,-56.5"/>
<text text-anchor="middle" x="209.5" y="-63.5" font-family="Helvetica,sans-Serif" font-size="10.00">qpSWIFT.h</text>
</a>
</g>
</g>
<!-- Node4&#45;&gt;Node6 -->
<g id="edge5" class="edge"><title>Node4&#45;&gt;Node6</title>
<path fill="none" stroke="midnightblue" d="M209.5,-101.805C209.5,-92.9102 209.5,-82.7798 209.5,-75.7511"/>
<polygon fill="midnightblue" stroke="midnightblue" points="206,-102.083 209.5,-112.083 213,-102.083 206,-102.083"/>
</g>
<!-- Node7 -->
<g id="node7" class="node"><title>Node7</title>
<g id="a_node7"><a xlink:href="qpSWIFT_8c.html" target="_top" xlink:title="qpSWIFT.c">
<polygon fill="none" stroke="black" points="88,-0.5 88,-19.5 155,-19.5 155,-0.5 88,-0.5"/>
<text text-anchor="middle" x="121.5" y="-7.5" font-family="Helvetica,sans-Serif" font-size="10.00">qpSWIFT.c</text>
</a>
</g>
</g>
<!-- Node6&#45;&gt;Node7 -->
<g id="edge6" class="edge"><title>Node6&#45;&gt;Node7</title>
<path fill="none" stroke="midnightblue" d="M186.523,-50.9005C170.387,-40.9986 149.319,-28.0705 135.604,-19.6545"/>
<polygon fill="midnightblue" stroke="midnightblue" points="185.007,-54.0769 195.361,-56.324 188.669,-48.1106 185.007,-54.0769"/>
</g>
<!-- Node8 -->
<g id="node8" class="node"><title>Node8</title>
<g id="a_node8"><a xlink:href="runqp_8c.html" target="_top" xlink:title="runqp.c">
<polygon fill="none" stroke="black" points="267,-0.5 267,-19.5 316,-19.5 316,-0.5 267,-0.5"/>
<text text-anchor="middle" x="291.5" y="-7.5" font-family="Helvetica,sans-Serif" font-size="10.00">runqp.c</text>
</a>
</g>
</g>
<!-- Node6&#45;&gt;Node8 -->
<g id="edge7" class="edge"><title>Node6&#45;&gt;Node8</title>
<path fill="none" stroke="midnightblue" d="M231.333,-50.6221C246.313,-40.7574 265.697,-27.9919 278.358,-19.6545"/>
<polygon fill="midnightblue" stroke="midnightblue" points="229.101,-47.9009 222.675,-56.324 232.951,-53.7471 229.101,-47.9009"/>
</g>
<!-- Node9 -->
<g id="node9" class="node"><title>Node9</title>
<g id="a_node9"><a xlink:href="runqpcpp_8cpp.html" target="_top" xlink:title="runqpcpp.cpp">
<polygon fill="none" stroke="black" points="173,-0.5 173,-19.5 248,-19.5 248,-0.5 173,-0.5"/>
<text text-anchor="middle" x="210.5" y="-7.5" font-family="Helvetica,sans-Serif" font-size="10.00">runqpcpp.cpp</text>
</a>
</g>
</g>
<!-- Node6&#45;&gt;Node9 -->
<g id="edge8" class="edge"><title>Node6&#45;&gt;Node9</title>
<path fill="none" stroke="midnightblue" d="M209.855,-45.8045C210.02,-36.9102 210.208,-26.7798 210.338,-19.7511"/>
<polygon fill="midnightblue" stroke="midnightblue" points="206.351,-46.0199 209.665,-56.083 213.35,-46.1495 206.351,-46.0199"/>
</g>
<!-- Node11&#45;&gt;Node4 -->
<g id="edge11" class="edge"><title>Node11&#45;&gt;Node4</title>
<path fill="none" stroke="midnightblue" d="M209.5,-157.805C209.5,-148.91 209.5,-138.78 209.5,-131.751"/>
<polygon fill="midnightblue" stroke="midnightblue" points="206,-158.083 209.5,-168.083 213,-158.083 206,-158.083"/>
</g>
<!-- Node12&#45;&gt;Node8 -->
<g id="edge13" class="edge"><title>Node12&#45;&gt;Node8</title>
<path fill="none" stroke="midnightblue" d="M292.145,-45.8045C291.98,-36.9102 291.792,-26.7798 291.662,-19.7511"/>
<polygon fill="midnightblue" stroke="midnightblue" points="288.65,-46.1495 292.335,-56.083 295.649,-46.0199 288.65,-46.1495"/>
</g>
</g>
</svg>
