<?xml version="1.0" encoding="UTF-8" standalone="no"?>
<!DOCTYPE svg PUBLIC "-//W3C//DTD SVG 1.1//EN"
 "http://www.w3.org/Graphics/SVG/1.1/DTD/svg11.dtd">
<!-- Generated by graphviz version 2.38.0 (20140413.2041)
 -->
<!-- Title: runqp.c Pages: 1 -->
<svg width="656pt" height="364pt"
 viewBox="0.00 0.00 656.00 364.00" xmlns="http://www.w3.org/2000/svg" xmlns:xlink="http://www.w3.org/1999/xlink">
<g id="graph0" class="graph" transform="scale(1 1) rotate(0) translate(4 360)">
<title>runqp.c</title>
<!-- Node1 -->
<g id="node1" class="node"><title>Node1</title>
<polygon fill="#bfbfbf" stroke="black" points="398.5,-336.5 398.5,-355.5 447.5,-355.5 447.5,-336.5 398.5,-336.5"/>
<text text-anchor="middle" x="423" y="-343.5" font-family="Helvetica,sans-Serif" font-size="10.00">runqp.c</text>
</g>
<!-- Node2 -->
<g id="node2" class="node"><title>Node2</title>
<g id="a_node2"><a xlink:href="qpSWIFT_8h.html" target="_top" xlink:title="qpSWIFT.h">
<polygon fill="none" stroke="black" points="354.5,-280.5 354.5,-299.5 421.5,-299.5 421.5,-280.5 354.5,-280.5"/>
<text text-anchor="middle" x="388" y="-287.5" font-family="Helvetica,sans-Serif" font-size="10.00">qpSWIFT.h</text>
</a>
</g>
</g>
<!-- Node1&#45;&gt;Node2 -->
<g id="edge1" class="edge"><title>Node1&#45;&gt;Node2</title>
<path fill="none" stroke="midnightblue" d="M417.22,-336.083C412.328,-328.534 405.173,-317.495 399.167,-308.23"/>
<polygon fill="midnightblue" stroke="midnightblue" points="402.048,-306.239 393.672,-299.751 396.174,-310.046 402.048,-306.239"/>
</g>
<!-- Node18 -->
<g id="node18" class="node"><title>Node18</title>
<g id="a_node18"><a xlink:href="Matrices_8h_source.html" target="_top" xlink:title="Matrices.h">
<polygon fill="none" stroke="black" points="432,-224.5 432,-243.5 494,-243.5 494,-224.5 432,-224.5"/>
<text text-anchor="middle" x="463" y="-231.5" font-family="Helvetica,sans-Serif" font-size="10.00">Matrices.h</text>
</a>
</g>
</g>
<!-- Node1&#45;&gt;Node18 -->
<g id="edge24" class="edge"><title>Node1&#45;&gt;Node18</title>
<path fill="none" stroke="midnightblue" d="M426.139,-336.368C432.623,-318.537 447.62,-277.295 456.356,-253.272"/>
<polygon fill="midnightblue" stroke="midnightblue" points="459.748,-254.185 459.876,-243.591 453.169,-251.793 459.748,-254.185"/>
</g>
<!-- Node3 -->
<g id="node3" class="node"><title>Node3</title>
<g id="a_node3"><a xlink:href="Auxilary_8h.html" target="_top" xlink:title="Auxilary.h">
<polygon fill="none" stroke="black" points="354,-224.5 354,-243.5 414,-243.5 414,-224.5 354,-224.5"/>
<text text-anchor="middle" x="384" y="-231.5" font-family="Helvetica,sans-Serif" font-size="10.00">Auxilary.h</text>
</a>
</g>
</g>
<!-- Node2&#45;&gt;Node3 -->
<g id="edge2" class="edge"><title>Node2&#45;&gt;Node3</title>
<path fill="none" stroke="midnightblue" d="M387.339,-280.083C386.815,-273.006 386.064,-262.861 385.406,-253.986"/>
<polygon fill="midnightblue" stroke="midnightblue" points="388.877,-253.465 384.648,-243.751 381.897,-253.982 388.877,-253.465"/>
</g>
<!-- Node4 -->
<g id="node4" class="node"><title>Node4</title>
<g id="a_node4"><a xlink:href="timer_8h.html" target="_top" xlink:title="timer.h">
<polygon fill="none" stroke="black" points="511.5,-168.5 511.5,-187.5 558.5,-187.5 558.5,-168.5 511.5,-168.5"/>
<text text-anchor="middle" x="535" y="-175.5" font-family="Helvetica,sans-Serif" font-size="10.00">timer.h</text>
</a>
</g>
</g>
<!-- Node3&#45;&gt;Node4 -->
<g id="edge3" class="edge"><title>Node3&#45;&gt;Node4</title>
<path fill="none" stroke="midnightblue" d="M407.926,-224.444C433.219,-215.399 473.302,-201.064 501.68,-190.916"/>
<polygon fill="midnightblue" stroke="midnightblue" points="502.948,-194.179 511.186,-187.516 500.591,-187.588 502.948,-194.179"/>
</g>
<!-- Node11 -->
<g id="node11" class="node"><title>Node11</title>
<g id="a_node11"><a xlink:href="amd_8h_source.html" target="_top" xlink:title="amd.h">
<polygon fill="none" stroke="black" points="119,-112.5 119,-131.5 163,-131.5 163,-112.5 119,-112.5"/>
<text text-anchor="middle" x="141" y="-119.5" font-family="Helvetica,sans-Serif" font-size="10.00">amd.h</text>
</a>
</g>
</g>
<!-- Node3&#45;&gt;Node11 -->
<g id="edge10" class="edge"><title>Node3&#45;&gt;Node11</title>
<path fill="none" stroke="midnightblue" d="M353.734,-224.714C326.321,-216.754 285.122,-203.648 251,-188 218.714,-173.194 183.781,-151.479 162.144,-137.292"/>
<polygon fill="midnightblue" stroke="midnightblue" points="164,-134.323 153.731,-131.714 160.132,-140.157 164,-134.323"/>
</g>
<!-- Node15 -->
<g id="node15" class="node"><title>Node15</title>
<g id="a_node15"><a xlink:href="amd__internal_8h_source.html" target="_top" xlink:title="amd_internal.h">
<polygon fill="none" stroke="black" points="260,-168.5 260,-187.5 340,-187.5 340,-168.5 260,-168.5"/>
<text text-anchor="middle" x="300" y="-175.5" font-family="Helvetica,sans-Serif" font-size="10.00">amd_internal.h</text>
</a>
</g>
</g>
<!-- Node3&#45;&gt;Node15 -->
<g id="edge15" class="edge"><title>Node3&#45;&gt;Node15</title>
<path fill="none" stroke="midnightblue" d="M370.504,-224.324C357.4,-215.9 337.288,-202.971 321.893,-193.074"/>
<polygon fill="midnightblue" stroke="midnightblue" points="323.767,-190.118 313.463,-187.655 319.982,-196.006 323.767,-190.118"/>
</g>
<!-- Node17 -->
<g id="node17" class="node"><title>Node17</title>
<g id="a_node17"><a xlink:href="ldl_8h_source.html" target="_top" xlink:title="ldl.h">
<polygon fill="none" stroke="black" points="383.5,-168.5 383.5,-187.5 418.5,-187.5 418.5,-168.5 383.5,-168.5"/>
<text text-anchor="middle" x="401" y="-175.5" font-family="Helvetica,sans-Serif" font-size="10.00">ldl.h</text>
</a>
</g>
</g>
<!-- Node3&#45;&gt;Node17 -->
<g id="edge22" class="edge"><title>Node3&#45;&gt;Node17</title>
<path fill="none" stroke="midnightblue" d="M386.807,-224.083C389.085,-216.849 392.371,-206.409 395.208,-197.397"/>
<polygon fill="midnightblue" stroke="midnightblue" points="398.581,-198.341 398.245,-187.751 391.904,-196.239 398.581,-198.341"/>
</g>
<!-- Node5 -->
<g id="node5" class="node"><title>Node5</title>
<g id="a_node5"><a xlink:href="GlobalOptions_8h.html" target="_top" xlink:title="GlobalOptions.h">
<polygon fill="none" stroke="black" points="420,-112.5 420,-131.5 506,-131.5 506,-112.5 420,-112.5"/>
<text text-anchor="middle" x="463" y="-119.5" font-family="Helvetica,sans-Serif" font-size="10.00">GlobalOptions.h</text>
</a>
</g>
</g>
<!-- Node4&#45;&gt;Node5 -->
<g id="edge4" class="edge"><title>Node4&#45;&gt;Node5</title>
<path fill="none" stroke="midnightblue" d="M523.432,-168.324C512.58,-160.185 496.119,-147.839 483.117,-138.087"/>
<polygon fill="midnightblue" stroke="midnightblue" points="484.879,-135.034 474.779,-131.834 480.679,-140.634 484.879,-135.034"/>
</g>
<!-- Node9 -->
<g id="node9" class="node"><title>Node9</title>
<polygon fill="none" stroke="#bfbfbf" points="604,-112.5 604,-131.5 648,-131.5 648,-112.5 604,-112.5"/>
<text text-anchor="middle" x="626" y="-119.5" font-family="Helvetica,sans-Serif" font-size="10.00">time.h</text>
</g>
<!-- Node4&#45;&gt;Node9 -->
<g id="edge8" class="edge"><title>Node4&#45;&gt;Node9</title>
<path fill="none" stroke="midnightblue" d="M549.621,-168.324C563.949,-159.822 586.013,-146.729 602.749,-136.797"/>
<polygon fill="midnightblue" stroke="midnightblue" points="604.602,-139.768 611.416,-131.655 601.03,-133.748 604.602,-139.768"/>
</g>
<!-- Node10 -->
<g id="node10" class="node"><title>Node10</title>
<polygon fill="none" stroke="#bfbfbf" points="524,-112.5 524,-131.5 586,-131.5 586,-112.5 524,-112.5"/>
<text text-anchor="middle" x="555" y="-119.5" font-family="Helvetica,sans-Serif" font-size="10.00">sys/time.h</text>
</g>
<!-- Node4&#45;&gt;Node10 -->
<g id="edge9" class="edge"><title>Node4&#45;&gt;Node10</title>
<path fill="none" stroke="midnightblue" d="M538.303,-168.083C540.982,-160.849 544.849,-150.409 548.186,-141.397"/>
<polygon fill="midnightblue" stroke="midnightblue" points="551.568,-142.344 551.759,-131.751 545.004,-139.913 551.568,-142.344"/>
</g>
<!-- Node6 -->
<g id="node6" class="node"><title>Node6</title>
<polygon fill="none" stroke="#bfbfbf" points="391.5,-56.5 391.5,-75.5 438.5,-75.5 438.5,-56.5 391.5,-56.5"/>
<text text-anchor="middle" x="415" y="-63.5" font-family="Helvetica,sans-Serif" font-size="10.00">math.h</text>
</g>
<!-- Node5&#45;&gt;Node6 -->
<g id="edge5" class="edge"><title>Node5&#45;&gt;Node6</title>
<path fill="none" stroke="midnightblue" d="M455.074,-112.083C448.154,-104.298 437.935,-92.8015 429.548,-83.3665"/>
<polygon fill="midnightblue" stroke="midnightblue" points="432.038,-80.8999 422.779,-75.7511 426.806,-85.5505 432.038,-80.8999"/>
</g>
<!-- Node7 -->
<g id="node7" class="node"><title>Node7</title>
<polygon fill="none" stroke="#bfbfbf" points="327,-56.5 327,-75.5 373,-75.5 373,-56.5 327,-56.5"/>
<text text-anchor="middle" x="350" y="-63.5" font-family="Helvetica,sans-Serif" font-size="10.00">stdio.h</text>
</g>
<!-- Node5&#45;&gt;Node7 -->
<g id="edge6" class="edge"><title>Node5&#45;&gt;Node7</title>
<path fill="none" stroke="midnightblue" d="M445.095,-112.444C426.746,-103.675 397.995,-89.9355 376.906,-79.8579"/>
<polygon fill="midnightblue" stroke="midnightblue" points="378.353,-76.6703 367.821,-75.5164 375.335,-82.9862 378.353,-76.6703"/>
</g>
<!-- Node8 -->
<g id="node8" class="node"><title>Node8</title>
<polygon fill="none" stroke="#bfbfbf" points="222,-0.5 222,-19.5 270,-19.5 270,-0.5 222,-0.5"/>
<text text-anchor="middle" x="246" y="-7.5" font-family="Helvetica,sans-Serif" font-size="10.00">stdlib.h</text>
</g>
<!-- Node5&#45;&gt;Node8 -->
<g id="edge7" class="edge"><title>Node5&#45;&gt;Node8</title>
<path fill="none" stroke="midnightblue" d="M463.53,-112.47C463.893,-98.5833 462.445,-71.1228 447,-56 423.682,-33.1692 331.443,-20.0193 280.412,-14.3512"/>
<polygon fill="midnightblue" stroke="midnightblue" points="280.503,-10.8411 270.187,-13.2545 279.757,-17.8011 280.503,-10.8411"/>
</g>
<!-- Node12 -->
<g id="node12" class="node"><title>Node12</title>
<polygon fill="none" stroke="#bfbfbf" points="0,-56.5 0,-75.5 52,-75.5 52,-56.5 0,-56.5"/>
<text text-anchor="middle" x="26" y="-63.5" font-family="Helvetica,sans-Serif" font-size="10.00">stddef.h</text>
</g>
<!-- Node11&#45;&gt;Node12 -->
<g id="edge11" class="edge"><title>Node11&#45;&gt;Node12</title>
<path fill="none" stroke="midnightblue" d="M122.778,-112.444C104.104,-103.675 74.844,-89.9355 53.3826,-79.8579"/>
<polygon fill="midnightblue" stroke="midnightblue" points="54.6763,-76.5988 44.1368,-75.5164 51.7009,-82.935 54.6763,-76.5988"/>
</g>
<!-- Node13 -->
<g id="node13" class="node"><title>Node13</title>
<g id="a_node13"><a xlink:href="SuiteSparse__config_8h_source.html" target="_top" xlink:title="SuiteSparse_config.h">
<polygon fill="none" stroke="black" points="70,-56.5 70,-75.5 180,-75.5 180,-56.5 70,-56.5"/>
<text text-anchor="middle" x="125" y="-63.5" font-family="Helvetica,sans-Serif" font-size="10.00">SuiteSparse_config.h</text>
</a>
</g>
</g>
<!-- Node11&#45;&gt;Node13 -->
<g id="edge12" class="edge"><title>Node11&#45;&gt;Node13</title>
<path fill="none" stroke="midnightblue" d="M138.358,-112.083C136.214,-104.849 133.121,-94.4087 130.451,-85.3968"/>
<polygon fill="midnightblue" stroke="midnightblue" points="133.79,-84.3447 127.593,-75.7511 127.078,-86.3334 133.79,-84.3447"/>
</g>
<!-- Node13&#45;&gt;Node8 -->
<g id="edge14" class="edge"><title>Node13&#45;&gt;Node8</title>
<path fill="none" stroke="midnightblue" d="M144.173,-56.4435C163.909,-47.6356 194.885,-33.8116 217.493,-23.722"/>
<polygon fill="midnightblue" stroke="midnightblue" points="219.211,-26.788 226.917,-19.5164 216.359,-20.3957 219.211,-26.788"/>
</g>
<!-- Node14 -->
<g id="node14" class="node"><title>Node14</title>
<polygon fill="none" stroke="#bfbfbf" points="129,-0.5 129,-19.5 177,-19.5 177,-0.5 129,-0.5"/>
<text text-anchor="middle" x="153" y="-7.5" font-family="Helvetica,sans-Serif" font-size="10.00">limits.h</text>
</g>
<!-- Node13&#45;&gt;Node14 -->
<g id="edge13" class="edge"><title>Node13&#45;&gt;Node14</title>
<path fill="none" stroke="midnightblue" d="M129.624,-56.083C133.456,-48.6913 139.024,-37.9533 143.765,-28.8111"/>
<polygon fill="midnightblue" stroke="midnightblue" points="146.966,-30.2398 148.462,-19.7511 140.752,-27.0175 146.966,-30.2398"/>
</g>
<!-- Node15&#45;&gt;Node6 -->
<g id="edge19" class="edge"><title>Node15&#45;&gt;Node6</title>
<path fill="none" stroke="midnightblue" d="M310.844,-168.354C321.763,-159.52 338.954,-145.256 353,-132 369.906,-116.044 388.145,-96.632 400.433,-83.1981"/>
<polygon fill="midnightblue" stroke="midnightblue" points="403.118,-85.4469 407.249,-75.6905 397.936,-80.7413 403.118,-85.4469"/>
</g>
<!-- Node15&#45;&gt;Node7 -->
<g id="edge17" class="edge"><title>Node15&#45;&gt;Node7</title>
<path fill="none" stroke="midnightblue" d="M308.508,-168.474C316.526,-159.954 328.284,-146.122 335,-132 341.995,-117.292 345.831,-99.1293 347.868,-85.7452"/>
<polygon fill="midnightblue" stroke="midnightblue" points="351.341,-86.1806 349.186,-75.8072 344.402,-85.2602 351.341,-86.1806"/>
</g>
<!-- Node15&#45;&gt;Node8 -->
<g id="edge16" class="edge"><title>Node15&#45;&gt;Node8</title>
<path fill="none" stroke="midnightblue" d="M290.958,-168.252C282.787,-159.781 271.132,-146.17 265,-132 250.274,-97.9683 246.794,-54.155 246.072,-29.6773"/>
<polygon fill="midnightblue" stroke="midnightblue" points="249.57,-29.5578 245.902,-19.6181 242.571,-29.6756 249.57,-29.5578"/>
</g>
<!-- Node15&#45;&gt;Node11 -->
<g id="edge20" class="edge"><title>Node15&#45;&gt;Node11</title>
<path fill="none" stroke="midnightblue" d="M274.806,-168.444C247.113,-159.038 202.581,-143.914 172.577,-133.724"/>
<polygon fill="midnightblue" stroke="midnightblue" points="173.598,-130.375 163.004,-130.473 171.347,-137.003 173.598,-130.375"/>
</g>
<!-- Node15&#45;&gt;Node14 -->
<g id="edge18" class="edge"><title>Node15&#45;&gt;Node14</title>
<path fill="none" stroke="midnightblue" d="M290.806,-168.254C281.546,-159.343 266.958,-145.02 255,-132 221.876,-95.9339 185.434,-51.437 166.35,-27.7302"/>
<polygon fill="midnightblue" stroke="midnightblue" points="168.915,-25.3348 159.929,-19.7232 163.454,-29.7142 168.915,-25.3348"/>
</g>
<!-- Node16 -->
<g id="node16" class="node"><title>Node16</title>
<polygon fill="none" stroke="#bfbfbf" points="274,-112.5 274,-131.5 326,-131.5 326,-112.5 274,-112.5"/>
<text text-anchor="middle" x="300" y="-119.5" font-family="Helvetica,sans-Serif" font-size="10.00">assert.h</text>
</g>
<!-- Node15&#45;&gt;Node16 -->
<g id="edge21" class="edge"><title>Node15&#45;&gt;Node16</title>
<path fill="none" stroke="midnightblue" d="M300,-168.083C300,-161.006 300,-150.861 300,-141.986"/>
<polygon fill="midnightblue" stroke="midnightblue" points="303.5,-141.751 300,-131.751 296.5,-141.751 303.5,-141.751"/>
</g>
<!-- Node17&#45;&gt;Node5 -->
<g id="edge23" class="edge"><title>Node17&#45;&gt;Node5</title>
<path fill="none" stroke="midnightblue" d="M410.961,-168.324C420.127,-160.341 433.937,-148.313 445.028,-138.653"/>
<polygon fill="midnightblue" stroke="midnightblue" points="447.615,-141.041 452.857,-131.834 443.018,-135.762 447.615,-141.041"/>
</g>
<!-- Node18&#45;&gt;Node5 -->
<g id="edge25" class="edge"><title>Node18&#45;&gt;Node5</title>
<path fill="none" stroke="midnightblue" d="M463,-224.368C463,-206.617 463,-165.666 463,-141.597"/>
<polygon fill="midnightblue" stroke="midnightblue" points="466.5,-141.591 463,-131.591 459.5,-141.591 466.5,-141.591"/>
</g>
</g>
</svg>
