<?xml version="1.0" encoding="UTF-8" standalone="no"?>
<!DOCTYPE svg PUBLIC "-//W3C//DTD SVG 1.1//EN"
 "http://www.w3.org/Graphics/SVG/1.1/DTD/svg11.dtd">
<!-- Generated by graphviz version 2.38.0 (20140413.2041)
 -->
<!-- Title: QP Pages: 1 -->
<svg width="227pt" height="197pt"
 viewBox="0.00 0.00 227.00 197.00" xmlns="http://www.w3.org/2000/svg" xmlns:xlink="http://www.w3.org/1999/xlink">
<g id="graph0" class="graph" transform="scale(1 1) rotate(0) translate(4 193)">
<title>QP</title>
<!-- Node1 -->
<g id="node1" class="node"><title>Node1</title>
<polygon fill="#bfbfbf" stroke="black" points="97.5,-0.5 97.5,-19.5 128.5,-19.5 128.5,-0.5 97.5,-0.5"/>
<text text-anchor="middle" x="113" y="-7.5" font-family="Helvetica,sans-Serif" font-size="10.00">QP</text>
</g>
<!-- Node2 -->
<g id="node2" class="node"><title>Node2</title>
<g id="a_node2"><a xlink:href="structstats.html" target="_top" xlink:title="stats">
<polygon fill="none" stroke="black" points="0,-85 0,-104 38,-104 38,-85 0,-85"/>
<text text-anchor="middle" x="19" y="-92" font-family="Helvetica,sans-Serif" font-size="10.00">stats</text>
</a>
</g>
</g>
<!-- Node2&#45;&gt;Node1 -->
<g id="edge1" class="edge"><title>Node2&#45;&gt;Node1</title>
<path fill="none" stroke="#9a32cd" stroke-dasharray="5,2" d="M29.9862,-76.1681C38.0784,-64.3726 49.9152,-48.972 63,-38 73.2808,-29.3792 86.7495,-22.2979 97.1176,-17.5534"/>
<polygon fill="#9a32cd" stroke="#9a32cd" points="26.9403,-74.4289 24.3469,-84.7015 32.7803,-78.2883 26.9403,-74.4289"/>
<text text-anchor="middle" x="75.5" y="-41" font-family="Helvetica,sans-Serif" font-size="10.00"> stats</text>
</g>
<!-- Node3 -->
<g id="node3" class="node"><title>Node3</title>
<g id="a_node3"><a xlink:href="structsettings.html" target="_top" xlink:title="settings">
<polygon fill="none" stroke="black" points="56.5,-85 56.5,-104 107.5,-104 107.5,-85 56.5,-85"/>
<text text-anchor="middle" x="82" y="-92" font-family="Helvetica,sans-Serif" font-size="10.00">settings</text>
</a>
</g>
</g>
<!-- Node3&#45;&gt;Node1 -->
<g id="edge2" class="edge"><title>Node3&#45;&gt;Node1</title>
<path fill="none" stroke="#9a32cd" stroke-dasharray="5,2" d="M84.6685,-74.7592C86.6541,-63.7446 89.917,-49.7257 95,-38 97.8681,-31.3838 102.368,-24.6338 106.151,-19.5379"/>
<polygon fill="#9a32cd" stroke="#9a32cd" points="81.1654,-74.5 83.0389,-84.9279 88.0772,-75.6077 81.1654,-74.5"/>
<text text-anchor="middle" x="112.5" y="-41" font-family="Helvetica,sans-Serif" font-size="10.00"> options</text>
</g>
<!-- Node4 -->
<g id="node4" class="node"><title>Node4</title>
<g id="a_node4"><a xlink:href="structsmat.html" target="_top" xlink:title="smat">
<polygon fill="none" stroke="black" points="144,-169.5 144,-188.5 182,-188.5 182,-169.5 144,-169.5"/>
<text text-anchor="middle" x="163" y="-176.5" font-family="Helvetica,sans-Serif" font-size="10.00">smat</text>
</a>
</g>
</g>
<!-- Node4&#45;&gt;Node1 -->
<g id="edge3" class="edge"><title>Node4&#45;&gt;Node1</title>
<path fill="none" stroke="#9a32cd" stroke-dasharray="5,2" d="M159.342,-159.058C152.852,-126.149 139.149,-59.8393 130,-38 127.26,-31.4604 123.01,-24.7104 119.445,-19.5953"/>
<polygon fill="#9a32cd" stroke="#9a32cd" points="155.966,-160.034 161.317,-169.178 162.836,-158.693 155.966,-160.034"/>
<text text-anchor="middle" x="158.5" y="-114" font-family="Helvetica,sans-Serif" font-size="10.00"> At</text>
<text text-anchor="middle" x="158.5" y="-103" font-family="Helvetica,sans-Serif" font-size="10.00">G</text>
<text text-anchor="middle" x="158.5" y="-92" font-family="Helvetica,sans-Serif" font-size="10.00">Gt</text>
<text text-anchor="middle" x="158.5" y="-81" font-family="Helvetica,sans-Serif" font-size="10.00">P</text>
<text text-anchor="middle" x="158.5" y="-70" font-family="Helvetica,sans-Serif" font-size="10.00">A</text>
</g>
<!-- Node5 -->
<g id="node5" class="node"><title>Node5</title>
<g id="a_node5"><a xlink:href="structkkt.html" target="_top" xlink:title="kkt">
<polygon fill="none" stroke="black" points="175,-85 175,-104 205,-104 205,-85 175,-85"/>
<text text-anchor="middle" x="190" y="-92" font-family="Helvetica,sans-Serif" font-size="10.00">kkt</text>
</a>
</g>
</g>
<!-- Node4&#45;&gt;Node5 -->
<g id="edge5" class="edge"><title>Node4&#45;&gt;Node5</title>
<path fill="none" stroke="#9a32cd" stroke-dasharray="5,2" d="M168.915,-159.925C174.582,-142.612 182.887,-117.235 187.187,-104.095"/>
<polygon fill="#9a32cd" stroke="#9a32cd" points="165.572,-158.889 165.788,-169.482 172.225,-161.066 165.572,-158.889"/>
<text text-anchor="middle" x="197" y="-143" font-family="Helvetica,sans-Serif" font-size="10.00"> kktmatrix</text>
</g>
<!-- Node5&#45;&gt;Node1 -->
<g id="edge4" class="edge"><title>Node5&#45;&gt;Node1</title>
<path fill="none" stroke="#9a32cd" stroke-dasharray="5,2" d="M182.502,-75.492C176.986,-63.8054 168.612,-48.7985 158,-38 149.57,-29.4224 137.87,-22.512 128.512,-17.83"/>
<polygon fill="#9a32cd" stroke="#9a32cd" points="179.341,-76.9983 186.598,-84.718 185.739,-74.158 179.341,-76.9983"/>
<text text-anchor="middle" x="175.5" y="-41" font-family="Helvetica,sans-Serif" font-size="10.00"> kkt</text>
</g>
</g>
</svg>
