<?xml version="1.0" encoding="UTF-8" standalone="no"?>
<!DOCTYPE svg PUBLIC "-//W3C//DTD SVG 1.1//EN"
 "http://www.w3.org/Graphics/SVG/1.1/DTD/svg11.dtd">
<!-- Generated by graphviz version 2.38.0 (20140413.2041)
 -->
<!-- Title: timer.h Pages: 1 -->
<svg width="262pt" height="196pt"
 viewBox="0.00 0.00 262.00 196.00" xmlns="http://www.w3.org/2000/svg" xmlns:xlink="http://www.w3.org/1999/xlink">
<g id="graph0" class="graph" transform="scale(1 1) rotate(0) translate(4 192)">
<title>timer.h</title>
<!-- Node1 -->
<g id="node1" class="node"><title>Node1</title>
<polygon fill="#bfbfbf" stroke="black" points="72,-168.5 72,-187.5 119,-187.5 119,-168.5 72,-168.5"/>
<text text-anchor="middle" x="95.5" y="-175.5" font-family="Helvetica,sans-Serif" font-size="10.00">timer.h</text>
</g>
<!-- Node2 -->
<g id="node2" class="node"><title>Node2</title>
<g id="a_node2"><a xlink:href="timer_8c.html" target="_top" xlink:title="timer.c">
<polygon fill="none" stroke="black" points="0,-112.5 0,-131.5 47,-131.5 47,-112.5 0,-112.5"/>
<text text-anchor="middle" x="23.5" y="-119.5" font-family="Helvetica,sans-Serif" font-size="10.00">timer.c</text>
</a>
</g>
</g>
<!-- Node1&#45;&gt;Node2 -->
<g id="edge1" class="edge"><title>Node1&#45;&gt;Node2</title>
<path fill="none" stroke="midnightblue" d="M75.6343,-162.101C62.6765,-152.382 46.2026,-140.027 35.2785,-131.834"/>
<polygon fill="midnightblue" stroke="midnightblue" points="73.8319,-165.124 83.932,-168.324 78.0319,-159.524 73.8319,-165.124"/>
</g>
<!-- Node3 -->
<g id="node3" class="node"><title>Node3</title>
<g id="a_node3"><a xlink:href="Auxilary_8h.html" target="_top" xlink:title="Auxilary.h">
<polygon fill="none" stroke="black" points="65.5,-112.5 65.5,-131.5 125.5,-131.5 125.5,-112.5 65.5,-112.5"/>
<text text-anchor="middle" x="95.5" y="-119.5" font-family="Helvetica,sans-Serif" font-size="10.00">Auxilary.h</text>
</a>
</g>
</g>
<!-- Node1&#45;&gt;Node3 -->
<g id="edge2" class="edge"><title>Node1&#45;&gt;Node3</title>
<path fill="none" stroke="midnightblue" d="M95.5,-157.805C95.5,-148.91 95.5,-138.78 95.5,-131.751"/>
<polygon fill="midnightblue" stroke="midnightblue" points="92.0001,-158.083 95.5,-168.083 99.0001,-158.083 92.0001,-158.083"/>
</g>
<!-- Node9 -->
<g id="node9" class="node"><title>Node9</title>
<g id="a_node9"><a xlink:href="CodeGen__Prime_8h_source.html" target="_top" xlink:title="CodeGen_Prime.h">
<polygon fill="none" stroke="black" points="143,-112.5 143,-131.5 240,-131.5 240,-112.5 143,-112.5"/>
<text text-anchor="middle" x="191.5" y="-119.5" font-family="Helvetica,sans-Serif" font-size="10.00">CodeGen_Prime.h</text>
</a>
</g>
</g>
<!-- Node1&#45;&gt;Node9 -->
<g id="edge8" class="edge"><title>Node1&#45;&gt;Node9</title>
<path fill="none" stroke="midnightblue" d="M120.074,-163.177C137.739,-153.241 161.013,-140.149 176.114,-131.655"/>
<polygon fill="midnightblue" stroke="midnightblue" points="117.924,-160.371 110.924,-168.324 121.356,-166.472 117.924,-160.371"/>
</g>
<!-- Node4 -->
<g id="node4" class="node"><title>Node4</title>
<g id="a_node4"><a xlink:href="Auxilary_8c.html" target="_top" xlink:title="Auxilary.c">
<polygon fill="none" stroke="black" points="24.5,-56.5 24.5,-75.5 84.5,-75.5 84.5,-56.5 24.5,-56.5"/>
<text text-anchor="middle" x="54.5" y="-63.5" font-family="Helvetica,sans-Serif" font-size="10.00">Auxilary.c</text>
</a>
</g>
</g>
<!-- Node3&#45;&gt;Node4 -->
<g id="edge3" class="edge"><title>Node3&#45;&gt;Node4</title>
<path fill="none" stroke="midnightblue" d="M82.4828,-103.855C75.3833,-94.5048 66.896,-83.3265 61.1443,-75.7511"/>
<polygon fill="midnightblue" stroke="midnightblue" points="79.895,-106.235 88.7297,-112.083 85.4701,-102.002 79.895,-106.235"/>
</g>
<!-- Node5 -->
<g id="node5" class="node"><title>Node5</title>
<g id="a_node5"><a xlink:href="qpSWIFT_8h.html" target="_top" xlink:title="qpSWIFT.h">
<polygon fill="none" stroke="black" points="103,-56.5 103,-75.5 170,-75.5 170,-56.5 103,-56.5"/>
<text text-anchor="middle" x="136.5" y="-63.5" font-family="Helvetica,sans-Serif" font-size="10.00">qpSWIFT.h</text>
</a>
</g>
</g>
<!-- Node3&#45;&gt;Node5 -->
<g id="edge4" class="edge"><title>Node3&#45;&gt;Node5</title>
<path fill="none" stroke="midnightblue" d="M108.517,-103.855C115.617,-94.5048 124.104,-83.3265 129.856,-75.7511"/>
<polygon fill="midnightblue" stroke="midnightblue" points="105.53,-102.002 102.27,-112.083 111.105,-106.235 105.53,-102.002"/>
</g>
<!-- Node6 -->
<g id="node6" class="node"><title>Node6</title>
<g id="a_node6"><a xlink:href="qpSWIFT_8c.html" target="_top" xlink:title="qpSWIFT.c">
<polygon fill="none" stroke="black" points="27,-0.5 27,-19.5 94,-19.5 94,-0.5 27,-0.5"/>
<text text-anchor="middle" x="60.5" y="-7.5" font-family="Helvetica,sans-Serif" font-size="10.00">qpSWIFT.c</text>
</a>
</g>
</g>
<!-- Node5&#45;&gt;Node6 -->
<g id="edge5" class="edge"><title>Node5&#45;&gt;Node6</title>
<path fill="none" stroke="midnightblue" d="M115.924,-50.3804C102.188,-40.6204 84.5747,-28.1057 72.9329,-19.8339"/>
<polygon fill="midnightblue" stroke="midnightblue" points="114.11,-53.385 124.289,-56.324 118.165,-47.6787 114.11,-53.385"/>
</g>
<!-- Node7 -->
<g id="node7" class="node"><title>Node7</title>
<g id="a_node7"><a xlink:href="runqp_8c.html" target="_top" xlink:title="runqp.c">
<polygon fill="none" stroke="black" points="112,-0.5 112,-19.5 161,-19.5 161,-0.5 112,-0.5"/>
<text text-anchor="middle" x="136.5" y="-7.5" font-family="Helvetica,sans-Serif" font-size="10.00">runqp.c</text>
</a>
</g>
</g>
<!-- Node5&#45;&gt;Node7 -->
<g id="edge6" class="edge"><title>Node5&#45;&gt;Node7</title>
<path fill="none" stroke="midnightblue" d="M136.5,-45.8045C136.5,-36.9102 136.5,-26.7798 136.5,-19.7511"/>
<polygon fill="midnightblue" stroke="midnightblue" points="133,-46.083 136.5,-56.083 140,-46.083 133,-46.083"/>
</g>
<!-- Node8 -->
<g id="node8" class="node"><title>Node8</title>
<g id="a_node8"><a xlink:href="runqpcpp_8cpp.html" target="_top" xlink:title="runqpcpp.cpp">
<polygon fill="none" stroke="black" points="179,-0.5 179,-19.5 254,-19.5 254,-0.5 179,-0.5"/>
<text text-anchor="middle" x="216.5" y="-7.5" font-family="Helvetica,sans-Serif" font-size="10.00">runqpcpp.cpp</text>
</a>
</g>
</g>
<!-- Node5&#45;&gt;Node8 -->
<g id="edge7" class="edge"><title>Node5&#45;&gt;Node8</title>
<path fill="none" stroke="midnightblue" d="M157.801,-50.6221C172.415,-40.7574 191.327,-27.9919 203.679,-19.6545"/>
<polygon fill="midnightblue" stroke="midnightblue" points="155.684,-47.8282 149.353,-56.324 159.6,-53.6302 155.684,-47.8282"/>
</g>
</g>
</svg>
