<?xml version="1.0" encoding="UTF-8" standalone="no"?>
<!DOCTYPE svg PUBLIC "-//W3C//DTD SVG 1.1//EN"
 "http://www.w3.org/Graphics/SVG/1.1/DTD/svg11.dtd">
<!-- Generated by graphviz version 2.38.0 (20140413.2041)
 -->
<!-- Title: timer.h Pages: 1 -->
<svg width="282pt" height="140pt"
 viewBox="0.00 0.00 281.50 140.00" xmlns="http://www.w3.org/2000/svg" xmlns:xlink="http://www.w3.org/1999/xlink">
<g id="graph0" class="graph" transform="scale(1 1) rotate(0) translate(4 136)">
<title>timer.h</title>
<!-- Node1 -->
<g id="node1" class="node"><title>Node1</title>
<polygon fill="#bfbfbf" stroke="black" points="148,-112.5 148,-131.5 195,-131.5 195,-112.5 148,-112.5"/>
<text text-anchor="middle" x="171.5" y="-119.5" font-family="Helvetica,sans-Serif" font-size="10.00">timer.h</text>
</g>
<!-- Node2 -->
<g id="node2" class="node"><title>Node2</title>
<g id="a_node2"><a xlink:href="GlobalOptions_8h.html" target="_top" xlink:title="GlobalOptions.h">
<polygon fill="none" stroke="black" points="45.5,-56.5 45.5,-75.5 131.5,-75.5 131.5,-56.5 45.5,-56.5"/>
<text text-anchor="middle" x="88.5" y="-63.5" font-family="Helvetica,sans-Serif" font-size="10.00">GlobalOptions.h</text>
</a>
</g>
</g>
<!-- Node1&#45;&gt;Node2 -->
<g id="edge1" class="edge"><title>Node1&#45;&gt;Node2</title>
<path fill="none" stroke="midnightblue" d="M158.165,-112.324C145.338,-103.979 125.715,-91.2122 110.56,-81.3524"/>
<polygon fill="midnightblue" stroke="midnightblue" points="112.093,-78.1742 101.802,-75.6545 108.276,-84.0417 112.093,-78.1742"/>
</g>
<!-- Node6 -->
<g id="node6" class="node"><title>Node6</title>
<polygon fill="none" stroke="#bfbfbf" points="149.5,-56.5 149.5,-75.5 193.5,-75.5 193.5,-56.5 149.5,-56.5"/>
<text text-anchor="middle" x="171.5" y="-63.5" font-family="Helvetica,sans-Serif" font-size="10.00">time.h</text>
</g>
<!-- Node1&#45;&gt;Node6 -->
<g id="edge5" class="edge"><title>Node1&#45;&gt;Node6</title>
<path fill="none" stroke="midnightblue" d="M171.5,-112.083C171.5,-105.006 171.5,-94.8611 171.5,-85.9865"/>
<polygon fill="midnightblue" stroke="midnightblue" points="175,-85.751 171.5,-75.7511 168,-85.7511 175,-85.751"/>
</g>
<!-- Node7 -->
<g id="node7" class="node"><title>Node7</title>
<polygon fill="none" stroke="#bfbfbf" points="211.5,-56.5 211.5,-75.5 273.5,-75.5 273.5,-56.5 211.5,-56.5"/>
<text text-anchor="middle" x="242.5" y="-63.5" font-family="Helvetica,sans-Serif" font-size="10.00">sys/time.h</text>
</g>
<!-- Node1&#45;&gt;Node7 -->
<g id="edge6" class="edge"><title>Node1&#45;&gt;Node7</title>
<path fill="none" stroke="midnightblue" d="M182.907,-112.324C193.609,-104.185 209.841,-91.8395 222.663,-82.0874"/>
<polygon fill="midnightblue" stroke="midnightblue" points="225.044,-84.6734 230.885,-75.8339 220.807,-79.1018 225.044,-84.6734"/>
</g>
<!-- Node3 -->
<g id="node3" class="node"><title>Node3</title>
<polygon fill="none" stroke="#bfbfbf" points="0,-0.5 0,-19.5 47,-19.5 47,-0.5 0,-0.5"/>
<text text-anchor="middle" x="23.5" y="-7.5" font-family="Helvetica,sans-Serif" font-size="10.00">math.h</text>
</g>
<!-- Node2&#45;&gt;Node3 -->
<g id="edge2" class="edge"><title>Node2&#45;&gt;Node3</title>
<path fill="none" stroke="midnightblue" d="M78.0566,-56.324C68.3538,-48.2631 53.6847,-36.0765 42.0003,-26.3695"/>
<polygon fill="midnightblue" stroke="midnightblue" points="44.0619,-23.532 34.1334,-19.8339 39.5887,-28.9163 44.0619,-23.532"/>
</g>
<!-- Node4 -->
<g id="node4" class="node"><title>Node4</title>
<polygon fill="none" stroke="#bfbfbf" points="65.5,-0.5 65.5,-19.5 111.5,-19.5 111.5,-0.5 65.5,-0.5"/>
<text text-anchor="middle" x="88.5" y="-7.5" font-family="Helvetica,sans-Serif" font-size="10.00">stdio.h</text>
</g>
<!-- Node2&#45;&gt;Node4 -->
<g id="edge3" class="edge"><title>Node2&#45;&gt;Node4</title>
<path fill="none" stroke="midnightblue" d="M88.5,-56.083C88.5,-49.0059 88.5,-38.8611 88.5,-29.9865"/>
<polygon fill="midnightblue" stroke="midnightblue" points="92.0001,-29.751 88.5,-19.7511 85.0001,-29.7511 92.0001,-29.751"/>
</g>
<!-- Node5 -->
<g id="node5" class="node"><title>Node5</title>
<polygon fill="none" stroke="#bfbfbf" points="129.5,-0.5 129.5,-19.5 177.5,-19.5 177.5,-0.5 129.5,-0.5"/>
<text text-anchor="middle" x="153.5" y="-7.5" font-family="Helvetica,sans-Serif" font-size="10.00">stdlib.h</text>
</g>
<!-- Node2&#45;&gt;Node5 -->
<g id="edge4" class="edge"><title>Node2&#45;&gt;Node5</title>
<path fill="none" stroke="midnightblue" d="M98.9434,-56.324C108.646,-48.2631 123.315,-36.0765 135,-26.3695"/>
<polygon fill="midnightblue" stroke="midnightblue" points="137.411,-28.9163 142.867,-19.8339 132.938,-23.532 137.411,-28.9163"/>
</g>
</g>
</svg>
